<mxfile host="app.diagrams.net" modified="2021-10-26T13:04:05.230Z" agent="5.0 (Macintosh; Intel Mac OS X 10_15_7) AppleWebKit/537.36 (KHTML, like Gecko) Chrome/95.0.4638.54 Safari/537.36" etag="V0dQrKpY23OPyDWGj1QV" version="15.5.9" type="github">
  <diagram id="qvBAtY_ZouQ7naGbfM0L" name="第 1 页">
    <mxGraphModel dx="1773" dy="539" grid="1" gridSize="10" guides="1" tooltips="1" connect="1" arrows="1" fold="1" page="1" pageScale="1" pageWidth="827" pageHeight="1169" math="0" shadow="0">
      <root>
        <mxCell id="0" />
        <mxCell id="1" parent="0" />
        <mxCell id="tHkSnLV-d7DzI63ncAIN-3" value="" style="edgeStyle=orthogonalEdgeStyle;rounded=0;orthogonalLoop=1;jettySize=auto;html=1;" edge="1" parent="1" source="tHkSnLV-d7DzI63ncAIN-1" target="tHkSnLV-d7DzI63ncAIN-2">
          <mxGeometry relative="1" as="geometry" />
        </mxCell>
        <mxCell id="tHkSnLV-d7DzI63ncAIN-4" value="拿到目标类和目标类的接口" style="edgeLabel;html=1;align=center;verticalAlign=middle;resizable=0;points=[];" vertex="1" connectable="0" parent="tHkSnLV-d7DzI63ncAIN-3">
          <mxGeometry x="-0.175" y="-4" relative="1" as="geometry">
            <mxPoint x="4" y="5" as="offset" />
          </mxGeometry>
        </mxCell>
        <mxCell id="tHkSnLV-d7DzI63ncAIN-1" value="canApply" style="rounded=0;whiteSpace=wrap;html=1;" vertex="1" parent="1">
          <mxGeometry x="360" y="60" width="120" height="60" as="geometry" />
        </mxCell>
        <mxCell id="tHkSnLV-d7DzI63ncAIN-7" value="" style="edgeStyle=orthogonalEdgeStyle;rounded=0;orthogonalLoop=1;jettySize=auto;html=1;" edge="1" parent="1" source="tHkSnLV-d7DzI63ncAIN-2" target="tHkSnLV-d7DzI63ncAIN-6">
          <mxGeometry relative="1" as="geometry" />
        </mxCell>
        <mxCell id="tHkSnLV-d7DzI63ncAIN-31" value="1" style="edgeLabel;html=1;align=center;verticalAlign=middle;resizable=0;points=[];" vertex="1" connectable="0" parent="tHkSnLV-d7DzI63ncAIN-7">
          <mxGeometry x="-0.1728" y="-1" relative="1" as="geometry">
            <mxPoint as="offset" />
          </mxGeometry>
        </mxCell>
        <mxCell id="tHkSnLV-d7DzI63ncAIN-30" value="" style="edgeStyle=orthogonalEdgeStyle;rounded=0;orthogonalLoop=1;jettySize=auto;html=1;" edge="1" parent="1" source="tHkSnLV-d7DzI63ncAIN-2" target="tHkSnLV-d7DzI63ncAIN-29">
          <mxGeometry relative="1" as="geometry" />
        </mxCell>
        <mxCell id="tHkSnLV-d7DzI63ncAIN-33" value="3" style="edgeLabel;html=1;align=center;verticalAlign=middle;resizable=0;points=[];" vertex="1" connectable="0" parent="tHkSnLV-d7DzI63ncAIN-30">
          <mxGeometry x="-0.0143" y="-1" relative="1" as="geometry">
            <mxPoint as="offset" />
          </mxGeometry>
        </mxCell>
        <mxCell id="tHkSnLV-d7DzI63ncAIN-2" value="targetClass&lt;br&gt;interface" style="rounded=0;whiteSpace=wrap;html=1;" vertex="1" parent="1">
          <mxGeometry x="360" y="180" width="120" height="60" as="geometry" />
        </mxCell>
        <mxCell id="tHkSnLV-d7DzI63ncAIN-6" value="循环所有的方法&lt;br&gt;首先找实现类的方法&lt;br&gt;" style="rounded=0;whiteSpace=wrap;html=1;align=center;horizontal=1;labelPosition=center;verticalLabelPosition=top;verticalAlign=bottom;" vertex="1" parent="1">
          <mxGeometry x="-320" y="380" width="447.5" height="315" as="geometry" />
        </mxCell>
        <mxCell id="tHkSnLV-d7DzI63ncAIN-12" value="Y" style="edgeStyle=orthogonalEdgeStyle;rounded=0;orthogonalLoop=1;jettySize=auto;html=1;" edge="1" parent="1" source="tHkSnLV-d7DzI63ncAIN-10" target="tHkSnLV-d7DzI63ncAIN-11">
          <mxGeometry relative="1" as="geometry" />
        </mxCell>
        <mxCell id="tHkSnLV-d7DzI63ncAIN-17" value="" style="edgeStyle=orthogonalEdgeStyle;rounded=0;orthogonalLoop=1;jettySize=auto;html=1;" edge="1" parent="1">
          <mxGeometry relative="1" as="geometry">
            <mxPoint x="315" y="500" as="sourcePoint" />
            <mxPoint x="315" y="550" as="targetPoint" />
          </mxGeometry>
        </mxCell>
        <mxCell id="tHkSnLV-d7DzI63ncAIN-18" value="N" style="edgeLabel;html=1;align=center;verticalAlign=middle;resizable=0;points=[];" vertex="1" connectable="0" parent="tHkSnLV-d7DzI63ncAIN-17">
          <mxGeometry x="-0.1333" y="-3" relative="1" as="geometry">
            <mxPoint as="offset" />
          </mxGeometry>
        </mxCell>
        <mxCell id="tHkSnLV-d7DzI63ncAIN-10" value="实现类的方法上是否存在@transactional" style="html=1;whiteSpace=wrap;aspect=fixed;shape=isoRectangle;align=center;" vertex="1" parent="1">
          <mxGeometry x="-266.25" y="427.5" width="150" height="90" as="geometry" />
        </mxCell>
        <mxCell id="tHkSnLV-d7DzI63ncAIN-11" value="" style="whiteSpace=wrap;html=1;" vertex="1" parent="1">
          <mxGeometry x="-66.25" y="442.5" width="120" height="60" as="geometry" />
        </mxCell>
        <mxCell id="tHkSnLV-d7DzI63ncAIN-16" value="实现类上是否存在@transactional" style="html=1;whiteSpace=wrap;aspect=fixed;shape=isoRectangle;align=center;" vertex="1" parent="1">
          <mxGeometry x="-266.25" y="567.5" width="150" height="90" as="geometry" />
        </mxCell>
        <mxCell id="tHkSnLV-d7DzI63ncAIN-26" value="" style="endArrow=classic;html=1;rounded=0;exitX=0.5;exitY=0.967;exitDx=0;exitDy=0;exitPerimeter=0;entryX=1;entryY=0.5;entryDx=0;entryDy=0;" edge="1" parent="1" source="tHkSnLV-d7DzI63ncAIN-16" target="tHkSnLV-d7DzI63ncAIN-2">
          <mxGeometry width="50" height="50" relative="1" as="geometry">
            <mxPoint x="310" y="630" as="sourcePoint" />
            <mxPoint x="325" y="710" as="targetPoint" />
            <Array as="points">
              <mxPoint x="-191" y="720" />
              <mxPoint x="325" y="720" />
              <mxPoint x="760" y="720" />
              <mxPoint x="760" y="210" />
            </Array>
          </mxGeometry>
        </mxCell>
        <mxCell id="tHkSnLV-d7DzI63ncAIN-27" value="N" style="edgeLabel;html=1;align=center;verticalAlign=middle;resizable=0;points=[];" vertex="1" connectable="0" parent="tHkSnLV-d7DzI63ncAIN-26">
          <mxGeometry x="-0.8841" y="2" relative="1" as="geometry">
            <mxPoint as="offset" />
          </mxGeometry>
        </mxCell>
        <mxCell id="tHkSnLV-d7DzI63ncAIN-28" value="没有找到则再次循环&lt;br&gt;这次找的就是接口" style="edgeLabel;html=1;align=center;verticalAlign=middle;resizable=0;points=[];" vertex="1" connectable="0" parent="tHkSnLV-d7DzI63ncAIN-26">
          <mxGeometry x="0.1679" y="-3" relative="1" as="geometry">
            <mxPoint as="offset" />
          </mxGeometry>
        </mxCell>
        <mxCell id="tHkSnLV-d7DzI63ncAIN-32" value="2" style="edgeLabel;html=1;align=center;verticalAlign=middle;resizable=0;points=[];" vertex="1" connectable="0" parent="tHkSnLV-d7DzI63ncAIN-26">
          <mxGeometry x="-0.4592" y="1" relative="1" as="geometry">
            <mxPoint as="offset" />
          </mxGeometry>
        </mxCell>
        <mxCell id="tHkSnLV-d7DzI63ncAIN-29" value="" style="rounded=0;whiteSpace=wrap;html=1;" vertex="1" parent="1">
          <mxGeometry x="180" y="385" width="480" height="310" as="geometry" />
        </mxCell>
        <mxCell id="tHkSnLV-d7DzI63ncAIN-34" value="Y" style="edgeStyle=orthogonalEdgeStyle;rounded=0;orthogonalLoop=1;jettySize=auto;html=1;" edge="1" parent="1" source="tHkSnLV-d7DzI63ncAIN-36" target="tHkSnLV-d7DzI63ncAIN-37">
          <mxGeometry relative="1" as="geometry" />
        </mxCell>
        <mxCell id="tHkSnLV-d7DzI63ncAIN-36" value="实现类的方法上是否存在@transactional" style="html=1;whiteSpace=wrap;aspect=fixed;shape=isoRectangle;align=center;" vertex="1" parent="1">
          <mxGeometry x="213.54" y="400" width="100" height="60" as="geometry" />
        </mxCell>
        <mxCell id="tHkSnLV-d7DzI63ncAIN-37" value="" style="whiteSpace=wrap;html=1;" vertex="1" parent="1">
          <mxGeometry x="370" y="400" width="120" height="60" as="geometry" />
        </mxCell>
        <mxCell id="tHkSnLV-d7DzI63ncAIN-44" value="N" style="edgeStyle=orthogonalEdgeStyle;rounded=0;orthogonalLoop=1;jettySize=auto;html=1;" edge="1" parent="1" source="tHkSnLV-d7DzI63ncAIN-38" target="tHkSnLV-d7DzI63ncAIN-43">
          <mxGeometry relative="1" as="geometry" />
        </mxCell>
        <mxCell id="tHkSnLV-d7DzI63ncAIN-38" value="实现类上是否存在@transactional" style="html=1;whiteSpace=wrap;aspect=fixed;shape=isoRectangle;align=center;" vertex="1" parent="1">
          <mxGeometry x="213.54000000000002" y="480" width="100" height="60" as="geometry" />
        </mxCell>
        <mxCell id="tHkSnLV-d7DzI63ncAIN-41" value="N" style="endArrow=classic;html=1;rounded=0;exitX=0.482;exitY=0.961;exitDx=0;exitDy=0;exitPerimeter=0;entryX=0.495;entryY=0.028;entryDx=0;entryDy=0;entryPerimeter=0;" edge="1" parent="1" source="tHkSnLV-d7DzI63ncAIN-10" target="tHkSnLV-d7DzI63ncAIN-16">
          <mxGeometry width="50" height="50" relative="1" as="geometry">
            <mxPoint x="90" y="570" as="sourcePoint" />
            <mxPoint x="140" y="520" as="targetPoint" />
          </mxGeometry>
        </mxCell>
        <mxCell id="tHkSnLV-d7DzI63ncAIN-42" value="N" style="endArrow=classic;html=1;rounded=0;exitX=0.507;exitY=0.989;exitDx=0;exitDy=0;exitPerimeter=0;" edge="1" parent="1" source="tHkSnLV-d7DzI63ncAIN-36" target="tHkSnLV-d7DzI63ncAIN-38">
          <mxGeometry width="50" height="50" relative="1" as="geometry">
            <mxPoint x="320" y="560" as="sourcePoint" />
            <mxPoint x="370" y="510" as="targetPoint" />
          </mxGeometry>
        </mxCell>
        <mxCell id="tHkSnLV-d7DzI63ncAIN-46" value="" style="edgeStyle=orthogonalEdgeStyle;rounded=0;orthogonalLoop=1;jettySize=auto;html=1;" edge="1" parent="1" source="tHkSnLV-d7DzI63ncAIN-43" target="tHkSnLV-d7DzI63ncAIN-45">
          <mxGeometry relative="1" as="geometry" />
        </mxCell>
        <mxCell id="tHkSnLV-d7DzI63ncAIN-47" value="N" style="edgeLabel;html=1;align=center;verticalAlign=middle;resizable=0;points=[];" vertex="1" connectable="0" parent="tHkSnLV-d7DzI63ncAIN-46">
          <mxGeometry x="-0.7251" y="1" relative="1" as="geometry">
            <mxPoint x="1" y="3" as="offset" />
          </mxGeometry>
        </mxCell>
        <mxCell id="tHkSnLV-d7DzI63ncAIN-43" value="接口方法上是否存在@transactional" style="html=1;whiteSpace=wrap;aspect=fixed;shape=isoRectangle;align=center;" vertex="1" parent="1">
          <mxGeometry x="210.2" y="560" width="106.67" height="64" as="geometry" />
        </mxCell>
        <mxCell id="tHkSnLV-d7DzI63ncAIN-45" value="接口类上是否存在@transactional" style="html=1;whiteSpace=wrap;aspect=fixed;shape=isoRectangle;align=center;" vertex="1" parent="1">
          <mxGeometry x="213.54" y="635" width="100" height="60" as="geometry" />
        </mxCell>
      </root>
    </mxGraphModel>
  </diagram>
</mxfile>
